<?xml version="1.0" encoding="utf-8"?>
<!-- Generator: Adobe Illustrator 25.0.1, SVG Export Plug-In . SVG Version: 6.00 Build 0)  -->
<svg version="1.1" id="Layer_1" xmlns="http://www.w3.org/2000/svg" xmlns:xlink="http://www.w3.org/1999/xlink" x="0px" y="0px"
	 viewBox="0 0 612 792" style="enable-background:new 0 0 612 792;" xml:space="preserve">
<style type="text/css">
	.st0{fill:#232020;}
</style>
<path class="st0" d="M487.1,220.2c0.9,0,1.7,0.7,1.7,1.7v347.6c0,0.9-0.8,1.7-1.7,1.7H126.3c-1.5,0-2.3-1.9-1.2-2.9l360.8-347.6
	C486.2,220.4,486.6,220.2,487.1,220.2 M487.1,214.2c-2,0-3.9,0.8-5.3,2.2L120.9,563.9c-2.3,2.2-3,5.5-1.8,8.4c1.2,2.9,4,4.8,7.2,4.8
	h360.8c4.3,0,7.7-3.5,7.7-7.7V221.9C494.8,217.6,491.3,214.2,487.1,214.2L487.1,214.2z"/>
</svg>
