<?xml version="1.0" encoding="utf-8"?>
<!-- Generator: Adobe Illustrator 25.0.1, SVG Export Plug-In . SVG Version: 6.00 Build 0)  -->
<svg version="1.1" id="Layer_1" xmlns="http://www.w3.org/2000/svg" xmlns:xlink="http://www.w3.org/1999/xlink" x="0px" y="0px"
	 viewBox="0 0 792 612" style="enable-background:new 0 0 792 612;" xml:space="preserve">
<style type="text/css">
	.st0{fill:#272525;}
</style>
<g>
	<path class="st0" d="M507.2,567h-27.3c-11,0-19.9-8.9-19.9-19.9v-91.4l-33.8,97.9c-2.8,8-10.3,13.4-18.8,13.4h-24.6
		c-8.5,0-16-5.4-18.8-13.4l-33.8-96.9V547c0,11-8.9,19.9-19.9,19.9h-27.3c-11,0-19.9-8.9-19.9-19.9V339.6c0-11,8.9-19.9,19.9-19.9
		h53.5c8.5,0,16.1,5.4,18.9,13.5l41,120.8l38.7-120.4c2.7-8.3,10.3-13.8,19-13.8h53.4c11,0,19.9,8.9,19.9,19.9V547
		C527.1,558,518.2,567,507.2,567z M282.9,330c-5.3,0-9.6,4.3-9.6,9.6V547c0,5.3,4.3,9.6,9.6,9.6h27.3c5.3,0,9.6-4.3,9.6-9.6V397.6
		h0.6l53.2,152.6c1.3,3.9,5,6.5,9.1,6.5h24.6c4.1,0,7.8-2.6,9.1-6.5L469.6,396h0.6v151c0,5.3,4.3,9.6,9.6,9.6h27.3
		c5.3,0,9.6-4.3,9.6-9.6V339.6c0-5.3-4.3-9.6-9.6-9.6h-53.4c-4.2,0-7.9,2.7-9.2,6.7l-47.9,149.2h-0.6l-50.7-149.3
		c-1.3-3.9-5-6.5-9.1-6.5H282.9z"/>
	<path d="M132.4,517.4c6.8,6.6,16.5,9.8,29.1,9.8c9.1,0,16.9-2.3,23.4-6.8c4.7-3.2,8.1-6.6,10.1-10.2c1.5-2.5,4.1-4.3,7-4.3h22.1
		c6.2,0,10.2,6.5,7.7,12.2c-6.1,13.4-14.3,23.5-24.5,30.1c-13.1,8.5-28.9,12.7-47.5,12.7c-12.9,0-24.5-2.1-34.8-6.2
		c-10.3-4.1-19.1-10-26.3-17.6c-7.2-7.6-12.7-16.7-16.6-27.3c-3.9-10.6-5.9-22.2-5.9-34.9c0-12.3,2-23.7,6-34.3
		c4-10.6,9.7-19.7,17.1-27.5c7.4-7.7,16.2-13.8,26.4-18.3c10.2-4.4,21.6-6.7,34-6.7c13.9,0,26.1,2.7,36.4,8.1
		c10.3,5.4,18.8,12.6,25.5,21.7c6.7,9.1,11.5,19.5,14.4,31.1c2.3,9,3.4,18.3,3.4,27.9c0,4.7-3.8,8.6-8.5,8.6H130.7
		c-5.3,0-9.2,4.8-8.3,10.1C124,505.2,127.4,512.4,132.4,517.4z M183.3,431c-5.4-5.9-13.6-8.9-24.5-8.9c-7.2,0-13.1,1.2-17.9,3.7
		c-4.8,2.4-8.6,5.5-11.4,9c-2.9,3.6-4.9,7.4-6,11.4c0,0,0,0.1,0,0.1c-1.5,5.4,2.6,10.7,8.2,10.7h52c5.8,0,9.9-5.8,8-11.3
		C189.5,439.7,186.7,434.8,183.3,431z"/>
	<path class="st0" d="M515.8,301.6H274.4c-2.6,0-4.9-1.5-5.8-3.9c-1-2.4-0.4-5.1,1.5-6.9L511.4,58.3c1.2-1.1,2.7-1.8,4.4-1.8
		c3.5,0,6.3,2.8,6.3,6.3v232.5C522.1,298.8,519.2,301.6,515.8,301.6z M284.4,291.3h227.4v-219L284.4,291.3z"/>
</g>
</svg>
