<?xml version="1.0" encoding="UTF-8" standalone="no"?>
<!-- Generator: Adobe Illustrator 25.0.1, SVG Export Plug-In . SVG Version: 6.00 Build 0)  -->

<svg
   xmlns:dc="http://purl.org/dc/elements/1.1/"
   xmlns:cc="http://creativecommons.org/ns#"
   xmlns:rdf="http://www.w3.org/1999/02/22-rdf-syntax-ns#"
   xmlns:svg="http://www.w3.org/2000/svg"
   xmlns="http://www.w3.org/2000/svg"
   xmlns:sodipodi="http://sodipodi.sourceforge.net/DTD/sodipodi-0.dtd"
   xmlns:inkscape="http://www.inkscape.org/namespaces/inkscape"
   version="1.1"
   x="0px"
   y="0px"
   viewBox="0 0 792 612"
   style="enable-background:new 0 0 792 612;"
   xml:space="preserve"
   id="svg42"
   sodipodi:docname="excitingMachine_logo_white.svg"
   inkscape:version="0.92.5 (2060ec1f9f, 2020-04-08)"><metadata
   id="metadata48"><rdf:RDF><cc:Work
       rdf:about=""><dc:format>image/svg+xml</dc:format><dc:type
         rdf:resource="http://purl.org/dc/dcmitype/StillImage" /></cc:Work></rdf:RDF></metadata><defs
   id="defs46" /><sodipodi:namedview
   pagecolor="#ffffff"
   bordercolor="#666666"
   borderopacity="1"
   objecttolerance="10"
   gridtolerance="10"
   guidetolerance="10"
   inkscape:pageopacity="0"
   inkscape:pageshadow="2"
   inkscape:window-width="1920"
   inkscape:window-height="1043"
   id="namedview44"
   showgrid="false"
   inkscape:zoom="0.76515151"
   inkscape:cx="346.47086"
   inkscape:cy="163.09873"
   inkscape:window-x="1080"
   inkscape:window-y="0"
   inkscape:window-maximized="1"
   inkscape:current-layer="svg42" />
<style
   type="text/css"
   id="style2">
	.st0{fill-rule:evenodd;clip-rule:evenodd;fill:#272525;}
	.st1{fill:#272525;}
</style>
<g
   id="Layer_1">
	<path
   class="st0"
   d="M483.5,582.3c-2.5,0-5-0.3-7.2-0.9c-2.4-0.7-4.5-1.7-6.2-3.1c-1.8-1.5-3.3-3.3-4.3-5.5c-1-2.2-1.5-4.8-1.5-7.7   c0-3.2,0.6-6,1.8-8.2c1.2-2.2,2.7-3.9,4.6-5.3c1.8-1.2,3.8-2.2,6.1-2.8c2.1-0.6,4.1-1,6.2-1.3c2-0.3,4-0.6,6-0.8   c1.8-0.2,3.3-0.4,4.7-0.8c1-0.3,1.8-0.6,2.3-1c0.1-0.1,0.1-0.5,0.1-0.6l0-0.1c0-1.2-0.2-1.8-0.3-1.9c-0.2-0.4-0.5-0.6-0.8-0.8   c-0.4-0.3-1-0.4-1.6-0.5c-0.9-0.1-1.8-0.2-2.8-0.2c-1.9,0-3.4,0.4-4.3,1.1c-0.5,0.4-0.9,1-1.1,1.9c-0.7,2.5-3.1,4.3-5.7,4.3H472   c-1.8,0-3.6-0.8-4.7-2.3c-1.1-1.4-1.5-3.3-1.1-5c0.5-1.9,1.2-3.6,2.2-5.1c1.6-2.4,3.7-4.4,6.2-5.9c2.4-1.4,5.1-2.4,8-3   c5.3-1.1,10.7-1.1,16.2-0.3c2.8,0.4,5.4,1.1,7.7,2.3c2.5,1.2,4.5,2.9,6.1,5.1c1.7,2.3,2.5,5.2,2.5,8.8v25c0,2,0.1,4,0.3,5.9   c0,0.3,0.1,0.6,0.1,0.9c0.3,1.8-0.2,3.5-1.3,4.9c-1.1,1.3-2.8,2.1-4.5,2.1h-7.1c-2,0-3.7-1-4.8-2.5c-1.5,1-3.1,1.7-4.9,2.2   C490,581.8,486.8,582.3,483.5,582.3z M472,544.8c-1.9,0-3.3-1.7-2.8-3.5c0.4-1.6,1-3,1.8-4.2c1.4-2,3.1-3.7,5.2-4.9   c2.1-1.2,4.5-2.1,7.1-2.6c2.6-0.5,5.3-0.8,7.9-0.8c2.4,0,4.8,0.2,7.3,0.5c2.5,0.3,4.7,1,6.8,2c2,1,3.7,2.4,5,4.1   c1.3,1.8,1.9,4.1,1.9,7v25c0,2.2,0.1,4.2,0.4,6.2c0,0.3,0.1,0.7,0.1,1c0.3,1.8-1,3.5-2.8,3.5h-7.1c-1.4,0-2.6-0.9-2.8-2.3   c0,0,0,0,0,0c-0.2-0.8-0.3-1.6-0.3-2.4c-2.1,2.2-4.6,3.7-7.4,4.6c-2.8,0.9-5.7,1.3-8.7,1.3c-2.3,0-4.4-0.3-6.4-0.8   c-2-0.6-3.7-1.4-5.2-2.6c-1.5-1.2-2.6-2.7-3.5-4.5c-0.8-1.8-1.3-3.9-1.3-6.4c0-2.7,0.5-5,1.4-6.7c1-1.8,2.2-3.2,3.7-4.2   c1.5-1.1,3.2-1.8,5.2-2.4c1.9-0.5,3.9-0.9,5.9-1.3c2-0.3,3.9-0.6,5.8-0.7c1.9-0.2,3.6-0.5,5.1-0.8c1.5-0.4,2.7-0.9,3.5-1.6   c0.9-0.7,1.3-1.7,1.2-3.1c0-1.4-0.2-2.6-0.7-3.4c-0.5-0.8-1.1-1.5-1.9-2c-0.8-0.5-1.7-0.8-2.7-0.9c-1-0.2-2.1-0.2-3.3-0.2   c-2.6,0-4.6,0.6-6.1,1.7c-1.1,0.8-1.8,2-2.2,3.5c-0.3,1.2-1.5,2-2.8,2H472z"
   id="path4" />
	<path
   class="st0"
   d="M496.1,559.1c-0.4,0.1-0.8,0.2-1.2,0.3c-1,0.2-2.1,0.4-3.2,0.5c-1,0.1-2,0.3-3,0.4c-0.8,0.2-1.7,0.4-2.5,0.6   c-0.6,0.2-1.2,0.5-1.6,0.8c-0.4,0.3-0.6,0.6-0.9,1c-0.2,0.3-0.3,0.9-0.3,1.6c0,0.7,0.1,1.2,0.3,1.5c0.2,0.3,0.4,0.6,0.7,0.8   c0.4,0.3,0.9,0.5,1.6,0.6c0.8,0.2,1.6,0.2,2.5,0.2c2.5,0,3.8-0.5,4.5-0.9c1-0.6,1.7-1.3,2.1-2c0.5-0.9,0.8-1.7,0.9-2.6   c0.1-1.1,0.2-2,0.2-2.6V559.1z M499.1,554.6c-0.6,0.5-1.3,0.9-2.1,1.2c-0.8,0.3-1.7,0.5-2.7,0.7c-1,0.2-2,0.3-3,0.5   c-1,0.1-2.1,0.3-3.1,0.5c-1,0.2-2,0.4-2.9,0.7c-1,0.3-1.8,0.7-2.5,1.3c-0.7,0.5-1.3,1.2-1.7,2c-0.4,0.8-0.6,1.8-0.6,3.1   c0,1.2,0.2,2.2,0.6,3c0.4,0.8,1,1.4,1.8,1.9c0.7,0.5,1.6,0.8,2.6,1c1,0.2,2,0.3,3.1,0.3c2.6,0,4.6-0.4,6-1.3   c1.4-0.9,2.5-1.9,3.2-3.1s1.1-2.4,1.3-3.7c0.2-1.2,0.2-2.2,0.2-3V554.6z"
   id="path6" />
	<path
   class="st1"
   d="M455,581.1h-8c-3.2,0-5.8-2.6-5.8-5.8v-26.7l-9.9,28.6c-0.8,2.4-3,3.9-5.5,3.9h-7.2c-2.5,0-4.7-1.6-5.5-3.9   l-9.9-28.4v26.4c0,3.2-2.6,5.8-5.8,5.8h-8c-3.2,0-5.8-2.6-5.8-5.8v-60.7c0-3.2,2.6-5.8,5.8-5.8h15.6c2.5,0,4.7,1.6,5.5,4l12,35.3   l11.3-35.2c0.8-2.4,3-4,5.5-4H455c3.2,0,5.8,2.6,5.8,5.8v60.7C460.9,578.5,458.2,581.1,455,581.1z M389.4,511.8   c-1.6,0-2.8,1.3-2.8,2.8v60.7c0,1.6,1.3,2.8,2.8,2.8h8c1.6,0,2.8-1.3,2.8-2.8v-43.7h0.2l15.6,44.6c0.4,1.1,1.5,1.9,2.7,1.9h7.2   c1.2,0,2.3-0.8,2.7-1.9l15.6-45.1h0.2v44.2c0,1.6,1.3,2.8,2.8,2.8h8c1.6,0,2.8-1.3,2.8-2.8v-60.7c0-1.6-1.3-2.8-2.8-2.8h-15.6   c-1.2,0-2.3,0.8-2.7,2l-14,43.6h-0.2l-14.8-43.7c-0.4-1.1-1.5-1.9-2.7-1.9H389.4z"
   id="path8" />
	<path
   class="st0"
   d="M545.1,582.3c-4,0-7.7-0.7-11-2c-3.4-1.4-6.3-3.3-8.7-5.8c-2.4-2.4-4.2-5.4-5.6-8.8c-1.3-3.3-2-7-2-11   c0-4,0.6-7.8,1.8-11.3c1.2-3.6,3-6.7,5.4-9.3c2.4-2.6,5.3-4.7,8.7-6.2c3.4-1.5,7.3-2.2,11.6-2.2c3.1,0,6.1,0.4,9,1.2   c3,0.8,5.6,2.1,8,3.9c2.4,1.8,4.4,4,5.9,6.6c1.2,2.1,2,4.4,2.4,7c0.2,1.4-0.2,2.8-1.1,3.9c-0.9,1.1-2.2,1.7-3.6,1.7h-9.4   c-2.2,0-4.1-1.5-4.6-3.6c-0.8-3.3-2.8-4.7-6.5-4.7c-1.5,0-2.7,0.3-3.6,0.9c-1.1,0.7-1.9,1.6-2.6,2.7c-0.7,1.2-1.2,2.6-1.5,4.1   c-0.3,1.6-0.5,3.2-0.5,4.8c0,1.5,0.2,3.1,0.5,4.7c0.3,1.5,0.8,2.8,1.5,4c0.6,1,1.4,1.9,2.4,2.6c0.9,0.6,2.1,0.9,3.5,0.9   c2.3,0,4-0.6,5.1-1.7c1.1-1.1,1.8-2.5,2.2-4.3c0.5-2.1,2.4-3.7,4.7-3.7h9.1c1.4,0,2.8,0.6,3.7,1.8c0.9,1.1,1.3,2.6,1,4   c-1.2,6-4,10.7-8.1,14.1C558.1,580.4,552.2,582.3,545.1,582.3z M545.3,538.7c-2.1,0-3.9,0.5-5.3,1.4c-1.4,1-2.6,2.2-3.5,3.7   c-0.9,1.5-1.5,3.2-1.9,5c-0.4,1.8-0.6,3.6-0.6,5.4c0,1.7,0.2,3.5,0.6,5.3c0.4,1.8,1,3.4,1.8,4.9c0.8,1.5,2,2.6,3.4,3.6   c1.4,0.9,3.2,1.4,5.2,1.4c3.2,0,5.6-0.9,7.3-2.6c1.4-1.5,2.4-3.4,2.9-5.8c0.2-0.8,0.9-1.3,1.7-1.3h9.1c1.1,0,2,1.1,1.8,2.2   c-1.1,5.3-3.4,9.5-7,12.4c-4.1,3.3-9.3,5-15.7,5c-3.6,0-6.9-0.6-9.9-1.8c-3-1.2-5.5-2.9-7.6-5.1c-2.1-2.2-3.7-4.8-4.9-7.8   c-1.2-3-1.8-6.3-1.8-9.9c0-3.7,0.5-7.2,1.6-10.4c1.1-3.2,2.7-5.9,4.8-8.3c2.1-2.3,4.7-4.1,7.7-5.4c3-1.3,6.5-2,10.4-2   c2.8,0,5.6,0.4,8.2,1.1c2.6,0.7,5,1.9,7,3.4c2.1,1.5,3.8,3.4,5,5.7c1,1.7,1.7,3.7,2,6c0.2,1.1-0.7,2.1-1.8,2.1h-9.4   c-0.8,0-1.5-0.5-1.7-1.3C553.6,541.1,550.5,538.7,545.3,538.7z"
   id="path10" />
	<path
   class="st0"
   d="M617.4,581.1h-6.9c-3.4,0-6.1-2.7-6.1-6.1v-24c0-4.2-0.8-6.3-1.4-7.3c-0.2-0.4-1-1.5-4-1.5c-3.9,0-5,1.5-5.4,2   c-0.8,1.1-1.8,3.5-1.8,8.7V575c0,3.4-2.7,6.1-6.1,6.1h-6.9c-3.4,0-6.1-2.7-6.1-6.1v-60.1c0-3.4,2.7-6.1,6.1-6.1h6.9   c3.4,0,6.1,2.7,6.1,6.1v14.5c0.7-0.5,1.5-1,2.3-1.4c3-1.5,6-2.2,8.9-2.2c4,0,7.2,0.5,9.8,1.7c2.7,1.2,4.9,2.8,6.5,4.9   c1.6,2,2.7,4.5,3.3,7.4c0.6,2.7,0.9,5.6,0.9,8.8V575C623.6,578.3,620.8,581.1,617.4,581.1z M585.7,511.8c1.7,0,3.1,1.4,3.1,3.1   v21.9h0.3c1.7-2.8,3.8-4.8,6.4-6.1c2.6-1.3,5.1-1.9,7.6-1.9c3.5,0,6.4,0.5,8.7,1.4c2.3,1,4,2.3,5.3,4c1.3,1.7,2.2,3.8,2.7,6.2   c0.5,2.4,0.8,5.2,0.8,8.1V575c0,1.7-1.4,3.1-3.1,3.1h-6.9c-1.7,0-3.1-1.4-3.1-3.1v-24c0-4-0.6-6.9-1.9-8.9c-1.2-2-3.4-2.9-6.6-2.9   c-3.6,0-6.2,1.1-7.8,3.2c-1.6,2.1-2.4,5.7-2.4,10.5V575c0,1.7-1.4,3.1-3.1,3.1h-6.9c-1.7,0-3.1-1.4-3.1-3.1v-60.1   c0-1.7,1.4-3.1,3.1-3.1H585.7z"
   id="path12" />
	<path
   class="st0"
   d="M643.5,525.6h-11.9c-2,0-3.6-1.6-3.6-3.6v-9.6c0-2,1.6-3.6,3.6-3.6h11.9c2,0,3.6,1.6,3.6,3.6v9.6   C647.1,524,645.5,525.6,643.5,525.6z M630.9,522v-9.6c0-0.3,0.3-0.6,0.6-0.6h11.9c0.3,0,0.6,0.3,0.6,0.6v9.6c0,0.3-0.3,0.6-0.6,0.6   h-11.9C631.2,522.6,630.9,522.4,630.9,522z"
   id="path14" />
	<path
   class="st0"
   d="M643.5,581.1h-11.9c-2,0-3.6-1.6-3.6-3.6v-46.8c0-2,1.6-3.6,3.6-3.6h11.9c2,0,3.6,1.6,3.6,3.6v46.8   C647.1,579.5,645.5,581.1,643.5,581.1z M644.1,530.7v46.8c0,0.3-0.3,0.6-0.6,0.6h-11.9c-0.3,0-0.6-0.3-0.6-0.6v-46.8   c0-0.3,0.3-0.6,0.6-0.6h11.9C643.8,530.1,644.1,530.3,644.1,530.7z"
   id="path16" />
	<path
   class="st0"
   d="M697.2,581.1h-8.7c-2.9,0-5.3-2.4-5.3-5.3V551c0-4.2-0.8-6.3-1.4-7.3c-0.2-0.4-1-1.5-4-1.5c-3.9,0-5,1.5-5.4,2   c-0.8,1.1-1.8,3.5-1.8,8.7v22.9c0,2.9-2.4,5.3-5.3,5.3h-8.7c-2.9,0-5.3-2.4-5.3-5.3v-43.5c0-2.9,2.4-5.3,5.3-5.3h8   c2,0,3.7,1.1,4.6,2.8c1-0.7,2-1.4,3.1-1.9c3.1-1.5,6.2-2.2,9.5-2.2c4,0,7.2,0.5,9.8,1.7c2.7,1.2,4.9,2.8,6.5,4.9   c1.6,2,2.7,4.5,3.3,7.4c0.6,2.7,0.9,5.6,0.9,8.8v27.3C702.4,578.7,700.1,581.1,697.2,581.1z M664.7,530.1c1.2,0,2.2,1,2.2,2.2v4.4   h0.3c1.7-2.8,3.8-4.8,6.5-6.1c2.7-1.3,5.4-1.9,8.2-1.9c3.5,0,6.4,0.5,8.7,1.4c2.3,1,4,2.3,5.3,4c1.3,1.7,2.2,3.8,2.7,6.2   c0.5,2.4,0.8,5.2,0.8,8.1v27.3c0,1.2-1,2.2-2.2,2.2h-8.7c-1.2,0-2.2-1-2.2-2.2V551c0-4-0.6-6.9-1.9-8.9c-1.2-2-3.4-2.9-6.6-2.9   c-3.6,0-6.2,1.1-7.8,3.2c-1.6,2.1-2.4,5.7-2.4,10.5v22.9c0,1.2-1,2.2-2.2,2.2h-8.7c-1.2,0-2.2-1-2.2-2.2v-43.5c0-1.2,1-2.2,2.2-2.2   H664.7z"
   id="path18" />
	<path
   class="st0"
   d="M731.6,582.3c-4.1,0-7.9-0.7-11.3-2c-3.4-1.4-6.4-3.3-8.8-5.9c-2.4-2.5-4.2-5.5-5.5-9   c-1.3-3.4-1.9-7.2-1.9-11.3c0-3.9,0.7-7.7,2-11.1c1.3-3.5,3.2-6.5,5.6-9.1c2.4-2.5,5.4-4.6,8.7-6c3.4-1.5,7.1-2.2,11.2-2.2   c4.5,0,8.6,0.9,12,2.7c3.4,1.8,6.3,4.2,8.5,7.3c2.2,3,3.7,6.4,4.7,10.1c0.8,3.1,1.2,6.5,1.1,9.8c-0.1,2.5-2.2,4.6-4.8,4.6h-0.8   c1.2,0.2,2.3,1,3.1,2c0.9,1.3,1.1,3,0.5,4.5c-2.1,5.1-5,8.9-8.8,11.3C742.8,580.9,737.6,582.3,731.6,582.3z M723.6,560.3   c0.4,1.8,1,3.2,2,4.1l0,0c1.4,1.3,3.5,2,6.4,2c2,0,3.7-0.5,5.1-1.5c1.1-0.7,1.8-1.5,2.2-2.2c0.7-1.3,1.9-2.2,3.3-2.5H723.6z    M724,545.9h13.7c-0.4-1.1-1-1.9-1.6-2.6c-1-1.1-2.6-1.6-5-1.6c-1.6,0-2.9,0.2-3.9,0.7c-1,0.5-1.8,1.1-2.3,1.8   C724.6,544.8,724.2,545.3,724,545.9z M723.5,566.6c2,1.9,4.8,2.9,8.5,2.9c2.7,0,4.9-0.7,6.9-2c1.5-1,2.6-2.1,3.1-3.3   c0.3-0.6,0.9-0.9,1.5-0.9h7.9c1.2,0,2.1,1.3,1.6,2.4c-1.8,4.5-4.4,7.8-7.7,9.9c-3.8,2.5-8.5,3.7-13.9,3.7c-3.8,0-7.2-0.6-10.2-1.8   c-3-1.2-5.6-2.9-7.7-5.2c-2.1-2.2-3.7-4.9-4.9-8c-1.1-3.1-1.7-6.5-1.7-10.2c0-3.6,0.6-6.9,1.8-10c1.2-3.1,2.8-5.8,5-8   c2.2-2.3,4.7-4,7.7-5.3c3-1.3,6.3-2,10-2c4.1,0,7.6,0.8,10.7,2.4c3,1.6,5.5,3.7,7.5,6.4c1.9,2.7,3.4,5.7,4.2,9.1   c0.7,2.9,1.1,5.9,1,9c0,0.9-0.8,1.7-1.7,1.7h-31c-1,0-1.9,0.9-1.7,2C720.8,562.5,721.8,564.9,723.5,566.6z M738.4,541.3   c-1.6-1.7-4-2.6-7.2-2.6c-2.1,0-3.8,0.4-5.2,1.1c-1.4,0.7-2.5,1.6-3.3,2.6c-0.8,1.1-1.4,2.2-1.8,3.3c-0.1,0.4-0.2,0.7-0.3,1.1   c-0.3,1.1,0.6,2.1,1.7,2.1h17.2c1.1,0,2-1.1,1.7-2.2C740.5,544.4,739.6,542.6,738.4,541.3z"
   id="path20" />
	<path
   d="M47.1,566.6c2,1.9,4.8,2.9,8.5,2.9c2.7,0,4.9-0.7,6.9-2c1.4-1,2.4-1.9,3-3c0.4-0.7,1.2-1.3,2.1-1.3H74c1.8,0,3,1.9,2.2,3.6   c-1.8,3.9-4.2,6.9-7.2,8.8c-3.8,2.5-8.5,3.7-13.9,3.7c-3.8,0-7.2-0.6-10.2-1.8c-3-1.2-5.6-2.9-7.7-5.2c-2.1-2.2-3.7-4.9-4.9-8   c-1.1-3.1-1.7-6.5-1.7-10.2c0-3.6,0.6-6.9,1.8-10c1.2-3.1,2.8-5.8,5-8c2.2-2.3,4.7-4,7.7-5.3c3-1.3,6.3-2,10-2   c4.1,0,7.6,0.8,10.7,2.4c3,1.6,5.5,3.7,7.5,6.4c1.9,2.7,3.4,5.7,4.2,9.1c0.7,2.6,1,5.4,1,8.2c0,1.4-1.1,2.5-2.5,2.5H46.6   c-1.6,0-2.7,1.4-2.4,3C44.6,563,45.6,565.1,47.1,566.6z M61.9,541.3c-1.6-1.7-4-2.6-7.2-2.6c-2.1,0-3.8,0.4-5.2,1.1   c-1.4,0.7-2.5,1.6-3.3,2.6c-0.8,1.1-1.4,2.2-1.8,3.3c0,0,0,0,0,0c-0.5,1.6,0.8,3.1,2.4,3.1H62c1.7,0,2.9-1.7,2.3-3.3   C63.8,543.9,63,542.4,61.9,541.3z"
   id="path22" />
	<path
   d="M86.7,530.1h9.9c0.7,0,1.4,0.3,1.7,0.9l6,9c0.8,1.2,2.7,1.2,3.5,0l6-9c0.4-0.6,1-0.9,1.8-0.9h9.4c1.7,0,2.7,1.9,1.7,3.3   l-12.6,17.9c-0.5,0.7-0.5,1.7,0,2.4l14.6,21c1,1.4,0,3.3-1.7,3.3h-9.8c-0.7,0-1.4-0.4-1.8-0.9l-7.6-11.5c-0.8-1.3-2.7-1.3-3.5,0   l-7.6,11.5c-0.4,0.6-1.1,0.9-1.8,0.9h-9.6c-1.7,0-2.7-1.9-1.7-3.3L97.6,554c0.5-0.7,0.5-1.7,0-2.4L85,533.4   C84,532,85,530.1,86.7,530.1z"
   id="path24" />
	<path
   d="M158.8,538.7c-2.1,0-3.9,0.5-5.3,1.4c-1.4,1-2.6,2.2-3.5,3.7c-0.9,1.5-1.5,3.2-1.9,5c-0.4,1.8-0.6,3.6-0.6,5.4   c0,1.7,0.2,3.5,0.6,5.3c0.4,1.8,1,3.4,1.8,4.9c0.8,1.5,2,2.6,3.4,3.6c1.4,0.9,3.2,1.4,5.2,1.4c3.2,0,5.6-0.9,7.3-2.6   c1.3-1.4,2.3-3.2,2.8-5.3c0.3-1,1.2-1.8,2.3-1.8h8c1.5,0,2.6,1.4,2.3,2.8c-1.2,5-3.4,8.9-6.9,11.7c-4.1,3.3-9.3,5-15.7,5   c-3.6,0-6.9-0.6-9.9-1.8c-3-1.2-5.5-2.9-7.6-5.1c-2.1-2.2-3.7-4.8-4.9-7.8c-1.2-3-1.8-6.3-1.8-9.9c0-3.7,0.5-7.2,1.6-10.4   c1.1-3.2,2.7-5.9,4.8-8.3c2.1-2.3,4.7-4.1,7.7-5.4c3-1.3,6.5-2,10.4-2c2.8,0,5.6,0.4,8.2,1.1c2.6,0.7,5,1.9,7,3.4   c2.1,1.5,3.8,3.4,5,5.7c0.9,1.6,1.5,3.3,1.9,5.3c0.3,1.4-0.9,2.7-2.3,2.7h-8.4c-1.1,0-2-0.7-2.2-1.7   C166.9,540.9,163.8,538.7,158.8,538.7z"
   id="path26" />
	<path
   d="M189.5,519.3v-4.2c0-1.9,1.5-3.4,3.3-3.4h6.5c1.8,0,3.3,1.5,3.3,3.4v4.2c0,1.9-1.5,3.4-3.3,3.4h-6.5   C191,522.6,189.5,521.1,189.5,519.3z M202.6,533.4v41.3c0,1.9-1.5,3.4-3.3,3.4h-6.5c-1.8,0-3.3-1.5-3.3-3.4v-41.3   c0-1.9,1.5-3.4,3.3-3.4h6.5C201.1,530.1,202.6,531.6,202.6,533.4z"
   id="path28" />
	<path
   d="M239.3,532.8v3.3c0,1.5-1.2,2.7-2.7,2.7h-4.2c-1.5,0-2.7,1.2-2.7,2.7v21c0,2.2,0.4,3.7,1.1,4.5c0.7,0.7,2.2,1.1,4.4,1.1   c0.7,0,1.5,0,2.1-0.1c0.7-0.1,1.3-0.2,1.9-0.3v7.8c0,1.4-1.1,2.6-2.6,2.7c-0.4,0-0.8,0.1-1.1,0.1c-1.4,0.1-2.7,0.1-4,0.1   c-2,0-4-0.1-5.8-0.4c-1.8-0.3-3.4-0.8-4.8-1.6c-1.4-0.8-2.5-2-3.3-3.4c-0.8-1.5-1.2-3.4-1.2-5.9v-25.6c0-1.5-1.2-2.7-2.7-2.7h-2.5   c-1.5,0-2.7-1.2-2.7-2.7v-3.3c0-1.5,1.2-2.7,2.7-2.7h2.5c1.5,0,2.7-1.2,2.7-2.7v-8.9c0-1.5,1.2-2.7,2.7-2.7h7.7   c1.5,0,2.7,1.2,2.7,2.7v8.9c0,1.5,1.2,2.7,2.7,2.7h4.2C238.1,530.1,239.3,531.3,239.3,532.8z"
   id="path30" />
	<path
   d="M246,520v-5.6c0-1.5,1.2-2.6,2.6-2.6h7.9c1.5,0,2.6,1.2,2.6,2.6v5.6c0,1.5-1.2,2.6-2.6,2.6h-7.9   C247.2,522.6,246,521.5,246,520z M259.2,532.7v42.7c0,1.5-1.2,2.6-2.6,2.6h-7.9c-1.5,0-2.6-1.2-2.6-2.6v-42.7   c0-1.5,1.2-2.6,2.6-2.6h7.9C258,530.1,259.2,531.3,259.2,532.7z"
   id="path32" />
	<path
   d="M277.3,530.1c2.6,0,4.8,2.1,4.8,4.8v1.9h0.3c1.7-2.8,3.8-4.8,6.5-6.1c2.7-1.3,5.4-1.9,8.2-1.9c3.5,0,6.4,0.5,8.7,1.4   c2.3,1,4,2.3,5.3,4c1.3,1.7,2.2,3.8,2.7,6.2c0.5,2.4,0.8,5.2,0.8,8.1v24.8c0,2.6-2.1,4.8-4.8,4.8h-3.6c-2.6,0-4.8-2.1-4.8-4.8V551   c0-4-0.6-6.9-1.9-8.9c-1.2-2-3.4-2.9-6.6-2.9c-3.6,0-6.2,1.1-7.8,3.2c-1.6,2.1-2.4,5.7-2.4,10.5v20.4c0,2.6-2.1,4.8-4.8,4.8h-3.6   c-2.6,0-4.8-2.1-4.8-4.8v-38.5c0-2.6,2.1-4.8,4.8-4.8H277.3z"
   id="path34" />
	<path
   d="M369.8,581.6c-0.5,2.5-1.7,4.8-3.4,6.9c-1.7,2.1-4.2,3.9-7.5,5.4c-3.3,1.5-7.7,2.2-13.2,2.2c-2.3,0-4.7-0.3-7.2-0.9   c-2.4-0.6-4.7-1.5-6.7-2.7c-2-1.2-3.7-2.8-5-4.8c-0.8-1.1-1.4-2.4-1.7-3.8c-0.4-1.6,0.8-3.2,2.4-3.2h8.3c1,0,1.9,0.6,2.3,1.6   c0.7,1.6,1.7,2.8,3.1,3.6c1.8,1,3.9,1.4,6.2,1.4c3.7,0,6.4-1.1,8.1-3.3c1.7-2.2,2.5-5,2.5-8.5v-6.3h-0.2c-1.4,2.5-3.4,4.4-6.1,5.6   c-2.6,1.2-5.4,1.8-8.3,1.8c-3.6,0-6.7-0.6-9.3-1.9c-2.6-1.3-4.7-3-6.4-5.2c-1.7-2.2-2.9-4.8-3.7-7.7c-0.8-2.9-1.2-6.1-1.2-9.3   c0-3.1,0.4-6.1,1.3-9c0.9-2.9,2.2-5.4,3.9-7.6c1.7-2.2,3.9-3.9,6.4-5.2c2.6-1.3,5.5-2,8.8-2c3.2,0,5.9,0.6,8.3,1.8   c2.4,1.2,4.4,3.2,6,5.9h0.2v-3.9c0-1.4,1.1-2.5,2.5-2.5h7.5c1.4,0,2.5,1.1,2.5,2.5V575C370.5,576.9,370.3,579.1,369.8,581.6z    M351.7,565.6c1.4-0.7,2.6-1.7,3.5-3c0.9-1.2,1.6-2.6,2.1-4.2c0.5-1.6,0.7-3.2,0.7-5c0-2-0.2-3.9-0.6-5.6c-0.4-1.8-1-3.3-1.9-4.7   c-0.9-1.4-2-2.4-3.4-3.3c-1.4-0.8-3.2-1.2-5.4-1.2c-1.9,0-3.4,0.4-4.8,1.1c-1.3,0.7-2.4,1.7-3.3,3c-0.9,1.3-1.5,2.7-1.9,4.4   c-0.4,1.6-0.6,3.4-0.6,5.2c0,1.7,0.2,3.5,0.5,5.2c0.3,1.7,0.9,3.2,1.8,4.6c0.8,1.4,1.9,2.5,3.3,3.3c1.4,0.9,3.1,1.3,5.1,1.3   C348.7,566.8,350.3,566.4,351.7,565.6z"
   id="path36" />
	
</g>
<g
   id="Layer_2">
</g>
</svg>