<?xml version="1.0" encoding="utf-8"?>
<!-- Generator: Adobe Illustrator 25.0.1, SVG Export Plug-In . SVG Version: 6.00 Build 0)  -->
<svg version="1.1" xmlns="http://www.w3.org/2000/svg" xmlns:xlink="http://www.w3.org/1999/xlink" x="0px" y="0px"
	 viewBox="0 0 792 612" style="enable-background:new 0 0 792 612;" xml:space="preserve">
<style type="text/css">
	.st0{fill-rule:evenodd;clip-rule:evenodd;fill:#272525;}
	.st1{fill:#272525;}
</style>
<g id="Layer_1">
	<path class="st0" d="M409.3,493.7c-2.1,0-4.1-0.3-6-0.8c-2-0.6-3.7-1.4-5.2-2.6c-1.5-1.2-2.7-2.8-3.6-4.6c-0.8-1.8-1.3-4-1.3-6.4
		c0-2.7,0.5-5,1.5-6.8c1-1.8,2.3-3.3,3.8-4.4c1.5-1,3.2-1.8,5.1-2.3c1.7-0.5,3.4-0.8,5.1-1.1c1.7-0.3,3.4-0.5,5-0.6
		c1.5-0.1,2.8-0.4,3.9-0.6c0.9-0.2,1.5-0.5,1.9-0.9c0.1-0.1,0.1-0.4,0.1-0.5l0-0.1c0-1-0.2-1.5-0.3-1.6c-0.2-0.3-0.4-0.5-0.6-0.7
		c-0.4-0.2-0.8-0.4-1.3-0.4c-0.7-0.1-1.5-0.2-2.4-0.2c-1.6,0-2.8,0.3-3.6,0.9c-0.4,0.3-0.7,0.8-0.9,1.6c-0.6,2.1-2.5,3.5-4.8,3.5
		h-6.1c-1.5,0-2.9-0.7-3.9-1.9c-0.9-1.2-1.2-2.7-0.9-4.1c0.4-1.6,1-3,1.8-4.2c1.3-2,3.1-3.6,5.1-4.9c2-1.2,4.2-2,6.7-2.5
		c4.4-0.9,8.9-0.9,13.5-0.3c2.3,0.3,4.4,1,6.4,1.9c2.1,1,3.8,2.4,5.1,4.2c1.4,1.9,2.1,4.4,2.1,7.3v20.7c0,1.7,0.1,3.3,0.3,4.9
		c0,0.2,0.1,0.5,0.1,0.7c0.3,1.5-0.1,2.9-1.1,4.1c-0.9,1.1-2.3,1.7-3.7,1.7h-5.9c-1.6,0-3.1-0.8-4-2c-1.3,0.8-2.6,1.4-4,1.8
		C414.7,493.3,412,493.7,409.3,493.7z M399.8,462.6c-1.5,0-2.7-1.4-2.4-2.9c0.3-1.3,0.8-2.5,1.5-3.5c1.1-1.7,2.6-3.1,4.3-4.1
		c1.7-1,3.7-1.8,5.9-2.2c2.2-0.4,4.4-0.7,6.6-0.7c2,0,4,0.1,6.1,0.4c2,0.3,3.9,0.8,5.6,1.7c1.7,0.8,3.1,2,4.2,3.4
		c1.1,1.5,1.6,3.4,1.6,5.8v20.7c0,1.8,0.1,3.5,0.3,5.2c0,0.3,0.1,0.6,0.1,0.8c0.3,1.5-0.8,2.9-2.4,2.9h-5.9c-1.1,0-2.1-0.8-2.3-1.9
		c0,0,0,0,0,0c-0.1-0.6-0.2-1.3-0.3-2c-1.7,1.8-3.8,3.1-6.1,3.8c-2.4,0.7-4.8,1.1-7.2,1.1c-1.9,0-3.7-0.2-5.3-0.7
		c-1.6-0.5-3.1-1.2-4.3-2.2c-1.2-1-2.2-2.2-2.9-3.7c-0.7-1.5-1-3.3-1-5.3c0-2.3,0.4-4.1,1.2-5.6c0.8-1.5,1.8-2.6,3.1-3.5
		c1.3-0.9,2.7-1.5,4.3-2c1.6-0.4,3.2-0.8,4.9-1c1.6-0.3,3.3-0.5,4.8-0.6c1.6-0.2,3-0.4,4.2-0.7c1.2-0.3,2.2-0.8,2.9-1.3
		c0.7-0.6,1-1.5,1-2.6c0-1.2-0.2-2.1-0.6-2.8c-0.4-0.7-0.9-1.2-1.5-1.6c-0.6-0.4-1.4-0.6-2.2-0.8c-0.8-0.1-1.8-0.2-2.7-0.2
		c-2.2,0-3.8,0.5-5.1,1.4c-0.9,0.7-1.5,1.6-1.9,2.9c-0.3,1-1.3,1.7-2.3,1.7H399.8z"/>
	<path class="st0" d="M419.7,474.5c-0.3,0.1-0.7,0.1-1,0.2c-0.9,0.2-1.8,0.3-2.7,0.4c-0.8,0.1-1.7,0.2-2.5,0.4
		c-0.7,0.1-1.4,0.3-2.1,0.5c-0.5,0.2-1,0.4-1.4,0.7c-0.3,0.2-0.5,0.5-0.7,0.8c-0.2,0.3-0.2,0.8-0.2,1.4c0,0.5,0.1,1,0.2,1.3
		c0.2,0.3,0.3,0.5,0.6,0.6c0.3,0.2,0.8,0.4,1.3,0.5c0.7,0.1,1.4,0.2,2.1,0.2c2.1,0,3.2-0.4,3.7-0.7c0.8-0.5,1.4-1.1,1.7-1.7
		c0.4-0.7,0.6-1.4,0.7-2.1c0.1-0.9,0.2-1.6,0.2-2.2V474.5z M422.2,470.7c-0.5,0.4-1,0.7-1.7,1c-0.7,0.2-1.4,0.4-2.2,0.6
		c-0.8,0.2-1.6,0.3-2.5,0.4c-0.9,0.1-1.7,0.2-2.6,0.4c-0.8,0.2-1.6,0.4-2.4,0.6c-0.8,0.3-1.5,0.6-2.1,1c-0.6,0.4-1.1,1-1.4,1.7
		c-0.4,0.7-0.5,1.5-0.5,2.5c0,1,0.2,1.8,0.5,2.5c0.4,0.7,0.8,1.2,1.5,1.6s1.3,0.7,2.2,0.8s1.7,0.2,2.5,0.2c2.2,0,3.8-0.4,5-1.1
		c1.2-0.7,2-1.6,2.6-2.6c0.6-1,0.9-2,1-3c0.1-1,0.2-1.8,0.2-2.5V470.7z"/>
	<path class="st1" d="M385.7,492.7H379c-2.7,0-4.8-2.2-4.8-4.8v-22.2l-8.2,23.8c-0.7,1.9-2.5,3.3-4.6,3.3h-6c-2.1,0-3.9-1.3-4.6-3.2
		l-8.2-23.5v21.9c0,2.7-2.2,4.8-4.8,4.8h-6.6c-2.7,0-4.8-2.2-4.8-4.8v-50.3c0-2.7,2.2-4.8,4.8-4.8h13c2.1,0,3.9,1.3,4.6,3.3
		l9.9,29.3l9.4-29.2c0.6-2,2.5-3.4,4.6-3.4h13c2.7,0,4.8,2.2,4.8,4.8v50.3C390.5,490.5,388.3,492.7,385.7,492.7z M331.2,435.2
		c-1.3,0-2.3,1-2.3,2.3v50.3c0,1.3,1,2.3,2.3,2.3h6.6c1.3,0,2.3-1,2.3-2.3v-36.3h0.2l12.9,37c0.3,0.9,1.2,1.6,2.2,1.6h6
		c1,0,1.9-0.6,2.2-1.6l12.9-37.4h0.2v36.6c0,1.3,1,2.3,2.3,2.3h6.6c1.3,0,2.3-1,2.3-2.3v-50.3c0-1.3-1-2.3-2.3-2.3h-12.9
		c-1,0-1.9,0.7-2.2,1.6L358.9,473h-0.2l-12.3-36.2c-0.3-0.9-1.2-1.6-2.2-1.6H331.2z"/>
	<path class="st0" d="M460.4,493.7c-3.3,0-6.3-0.6-9.1-1.7c-2.8-1.1-5.2-2.7-7.2-4.8c-2-2-3.5-4.5-4.6-7.3c-1.1-2.8-1.6-5.8-1.6-9.1
		c0-3.3,0.5-6.5,1.5-9.4c1-3,2.5-5.6,4.5-7.7c2-2.2,4.4-3.9,7.2-5.1c2.8-1.2,6-1.8,9.6-1.8c2.6,0,5.1,0.3,7.5,1
		c2.4,0.7,4.7,1.8,6.6,3.2c2,1.5,3.6,3.3,4.9,5.5c1,1.7,1.6,3.7,2,5.8c0.2,1.2-0.2,2.3-0.9,3.2c-0.8,0.9-1.9,1.4-3,1.4h-7.8
		c-1.8,0-3.4-1.2-3.8-3c-0.7-2.7-2.3-3.9-5.4-3.9c-1.2,0-2.2,0.3-3,0.8c-0.9,0.6-1.6,1.3-2.1,2.3c-0.6,1-1,2.2-1.3,3.4
		c-0.3,1.3-0.4,2.7-0.4,4c0,1.3,0.1,2.6,0.4,3.9c0.3,1.2,0.7,2.3,1.2,3.3c0.5,0.9,1.2,1.6,2,2.1c0.8,0.5,1.7,0.7,2.9,0.7
		c1.9,0,3.3-0.5,4.2-1.4c0.9-0.9,1.5-2.1,1.8-3.6c0.4-1.8,2-3.1,3.9-3.1h7.5c1.2,0,2.3,0.5,3.1,1.5c0.8,0.9,1.1,2.2,0.8,3.3
		c-1,5-3.3,8.9-6.7,11.7C471.1,492.1,466.2,493.7,460.4,493.7z M460.6,457.5c-1.7,0-3.2,0.4-4.4,1.2c-1.2,0.8-2.1,1.8-2.9,3.1
		c-0.7,1.3-1.3,2.6-1.6,4.2c-0.3,1.5-0.5,3-0.5,4.5c0,1.4,0.2,2.9,0.5,4.4c0.3,1.5,0.8,2.8,1.5,4c0.7,1.2,1.6,2.2,2.8,3
		c1.2,0.8,2.6,1.2,4.3,1.2c2.6,0,4.6-0.7,6-2.2c1.2-1.2,2-2.8,2.4-4.8c0.1-0.7,0.8-1.1,1.4-1.1h7.5c0.9,0,1.6,0.9,1.5,1.8
		c-0.9,4.4-2.9,7.8-5.8,10.3c-3.4,2.8-7.7,4.2-13,4.2c-3,0-5.7-0.5-8.2-1.5c-2.5-1-4.6-2.4-6.3-4.2c-1.7-1.8-3.1-3.9-4.1-6.4
		c-1-2.5-1.5-5.2-1.5-8.2c0-3.1,0.4-5.9,1.3-8.6c0.9-2.6,2.2-4.9,4-6.9c1.7-1.9,3.9-3.4,6.4-4.5c2.5-1.1,5.4-1.6,8.6-1.6
		c2.4,0,4.6,0.3,6.8,0.9c2.2,0.6,4.1,1.6,5.8,2.8c1.7,1.3,3.1,2.8,4.2,4.7c0.8,1.4,1.4,3.1,1.7,4.9c0.1,0.9-0.6,1.7-1.5,1.7h-7.8
		c-0.7,0-1.3-0.4-1.4-1.1C467.4,459.5,464.8,457.5,460.6,457.5z"/>
	<path class="st0" d="M520.4,492.7h-5.8c-2.8,0-5.1-2.3-5.1-5.1v-19.9c0-3.5-0.6-5.2-1.1-6c-0.2-0.3-0.8-1.3-3.3-1.3
		c-3.2,0-4.1,1.2-4.5,1.7c-0.7,0.9-1.5,2.9-1.5,7.2v18.3c0,2.8-2.3,5.1-5.1,5.1h-5.8c-2.8,0-5.1-2.3-5.1-5.1v-49.8
		c0-2.8,2.3-5.1,5.1-5.1h5.8c2.8,0,5.1,2.3,5.1,5.1v12c0.6-0.4,1.3-0.8,1.9-1.1c2.5-1.2,5-1.8,7.4-1.8c3.3,0,6,0.5,8.2,1.4
		c2.3,1,4.1,2.3,5.4,4.1c1.3,1.7,2.2,3.8,2.7,6.1c0.5,2.2,0.7,4.6,0.7,7.3v21.9C525.5,490.4,523.2,492.7,520.4,492.7z M494,435.2
		c1.4,0,2.6,1.2,2.6,2.6v18.1h0.2c1.4-2.3,3.2-4,5.3-5c2.2-1.1,4.3-1.6,6.3-1.6c2.9,0,5.3,0.4,7.2,1.2c1.9,0.8,3.3,1.9,4.4,3.3
		c1.1,1.4,1.8,3.1,2.3,5.2c0.4,2,0.7,4.3,0.7,6.7v21.9c0,1.4-1.2,2.6-2.6,2.6h-5.8c-1.4,0-2.6-1.2-2.6-2.6v-19.9
		c0-3.3-0.5-5.7-1.5-7.4c-1-1.6-2.8-2.4-5.5-2.4c-3,0-5.1,0.9-6.5,2.7c-1.3,1.8-2,4.7-2,8.7v18.3c0,1.4-1.2,2.6-2.6,2.6h-5.8
		c-1.4,0-2.6-1.2-2.6-2.6v-49.8c0-1.4,1.2-2.6,2.6-2.6H494z"/>
	<path class="st0" d="M542,446.7h-9.9c-1.7,0-3-1.4-3-3v-8c0-1.7,1.4-3,3-3h9.9c1.7,0,3,1.4,3,3v8C545,445.3,543.6,446.7,542,446.7z
		 M531.6,443.7v-8c0-0.3,0.2-0.5,0.5-0.5h9.9c0.3,0,0.5,0.2,0.5,0.5v8c0,0.3-0.2,0.5-0.5,0.5h-9.9
		C531.8,444.2,531.6,443.9,531.6,443.7z"/>
	<path class="st0" d="M542,492.7h-9.9c-1.7,0-3-1.4-3-3v-38.8c0-1.7,1.4-3,3-3h9.9c1.7,0,3,1.4,3,3v38.8
		C545,491.3,543.6,492.7,542,492.7z M542.5,450.8v38.8c0,0.3-0.2,0.5-0.5,0.5h-9.9c-0.3,0-0.5-0.2-0.5-0.5v-38.8
		c0-0.3,0.2-0.5,0.5-0.5h9.9C542.3,450.3,542.5,450.6,542.5,450.8z"/>
	<path class="st0" d="M586.5,492.7h-7.2c-2.4,0-4.4-2-4.4-4.4v-20.6c0-3.5-0.6-5.2-1.1-6c-0.2-0.3-0.8-1.3-3.3-1.3
		c-3.2,0-4.1,1.2-4.5,1.7c-0.7,0.9-1.5,2.9-1.5,7.2v19c0,2.4-2,4.4-4.4,4.4h-7.2c-2.4,0-4.4-2-4.4-4.4v-36.1c0-2.4,2-4.4,4.4-4.4
		h6.7c1.7,0,3.1,0.9,3.8,2.3c0.8-0.6,1.6-1.1,2.5-1.6c2.5-1.2,5.2-1.8,7.8-1.8c3.3,0,6,0.5,8.2,1.4c2.3,1,4.1,2.3,5.4,4.1
		c1.3,1.7,2.2,3.8,2.7,6.1c0.5,2.2,0.7,4.6,0.7,7.3v22.6C590.9,490.7,588.9,492.7,586.5,492.7z M559.6,450.3c1,0,1.9,0.8,1.9,1.9
		v3.7h0.2c1.4-2.3,3.2-4,5.4-5c2.2-1.1,4.5-1.6,6.8-1.6c2.9,0,5.3,0.4,7.2,1.2c1.9,0.8,3.3,1.9,4.4,3.3c1.1,1.4,1.8,3.1,2.3,5.2
		c0.4,2,0.7,4.3,0.7,6.7v22.6c0,1-0.8,1.9-1.9,1.9h-7.2c-1,0-1.9-0.8-1.9-1.9v-20.6c0-3.3-0.5-5.7-1.5-7.4c-1-1.6-2.8-2.4-5.5-2.4
		c-3,0-5.1,0.9-6.5,2.7c-1.3,1.8-2,4.7-2,8.7v19c0,1-0.8,1.9-1.9,1.9h-7.2c-1,0-1.9-0.8-1.9-1.9v-36.1c0-1,0.8-1.9,1.9-1.9H559.6z"
		/>
	<path class="st0" d="M615,493.7c-3.4,0-6.6-0.6-9.4-1.7c-2.8-1.1-5.3-2.8-7.3-4.9c-2-2.1-3.5-4.6-4.6-7.5c-1-2.8-1.6-6-1.6-9.3
		c0-3.3,0.5-6.4,1.6-9.2c1.1-2.9,2.7-5.4,4.7-7.5c2-2.1,4.5-3.8,7.2-5c2.8-1.2,5.9-1.8,9.3-1.8c3.8,0,7.1,0.8,10,2.2
		c2.8,1.5,5.2,3.5,7,6c1.8,2.5,3.1,5.3,3.9,8.4c0.7,2.6,1,5.4,0.9,8.1c0,2.1-1.8,3.8-3.9,3.8h-0.6c1,0.2,1.9,0.8,2.5,1.7
		c0.7,1.1,0.9,2.5,0.4,3.7c-1.7,4.2-4.2,7.4-7.3,9.4C624.3,492.5,620,493.7,615,493.7z M608.5,475.4c0.3,1.5,0.9,2.7,1.6,3.4l0,0
		c1.1,1.1,2.9,1.7,5.3,1.7c1.7,0,3.1-0.4,4.3-1.2c0.9-0.6,1.5-1.2,1.8-1.8c0.6-1.1,1.6-1.8,2.8-2.1H608.5z M608.8,463.5h11.4
		c-0.4-0.9-0.8-1.6-1.3-2.1c-0.8-0.9-2.2-1.3-4.1-1.3c-1.3,0-2.4,0.2-3.2,0.6c-0.8,0.4-1.5,0.9-1.9,1.5
		C609.2,462.6,609,463,608.8,463.5z M608.3,480.6c1.6,1.6,4,2.4,7.1,2.4c2.2,0,4.1-0.6,5.7-1.7c1.2-0.9,2.1-1.8,2.6-2.7
		c0.2-0.5,0.7-0.8,1.3-0.8h6.6c1,0,1.7,1,1.3,2c-1.5,3.7-3.6,6.5-6.3,8.2c-3.2,2.1-7,3.1-11.5,3.1c-3.1,0-5.9-0.5-8.5-1.5
		c-2.5-1-4.6-2.4-6.4-4.3c-1.7-1.8-3.1-4.1-4-6.6c-0.9-2.6-1.4-5.4-1.4-8.5c0-3,0.5-5.8,1.5-8.3c1-2.6,2.4-4.8,4.2-6.7
		c1.8-1.9,3.9-3.4,6.4-4.4c2.5-1.1,5.2-1.6,8.3-1.6c3.4,0,6.3,0.7,8.8,2c2.5,1.3,4.6,3.1,6.2,5.3c1.6,2.2,2.8,4.7,3.5,7.5
		c0.6,2.4,0.9,4.9,0.8,7.5c0,0.8-0.7,1.4-1.4,1.4h-25.7c-0.9,0-1.5,0.8-1.4,1.6C606.1,477.3,607,479.3,608.3,480.6z M620.7,459.7
		c-1.3-1.4-3.3-2.2-6-2.2c-1.7,0-3.2,0.3-4.3,0.9c-1.2,0.6-2.1,1.3-2.8,2.2c-0.7,0.9-1.2,1.8-1.5,2.8c-0.1,0.3-0.2,0.6-0.2,0.9
		c-0.2,0.9,0.5,1.7,1.4,1.7h14.3c1,0,1.7-0.9,1.4-1.8C622.5,462.3,621.7,460.8,620.7,459.7z"/>
	<path d="M47.3,480.6c1.6,1.6,4,2.4,7.1,2.4c2.2,0,4.1-0.6,5.7-1.7c1.1-0.8,2-1.6,2.5-2.5c0.4-0.6,1-1,1.7-1h5.4
		c1.5,0,2.5,1.6,1.9,3c-1.5,3.3-3.5,5.7-5.9,7.3c-3.2,2.1-7,3.1-11.5,3.1c-3.1,0-5.9-0.5-8.5-1.5c-2.5-1-4.6-2.4-6.4-4.3
		c-1.7-1.8-3.1-4.1-4-6.6c-0.9-2.6-1.4-5.4-1.4-8.5c0-3,0.5-5.8,1.5-8.3c1-2.6,2.4-4.8,4.2-6.7c1.8-1.9,3.9-3.4,6.4-4.4
		c2.5-1.1,5.2-1.6,8.3-1.6c3.4,0,6.3,0.7,8.8,2c2.5,1.3,4.6,3.1,6.2,5.3c1.6,2.2,2.8,4.7,3.5,7.5c0.6,2.2,0.8,4.4,0.8,6.8
		c0,1.1-0.9,2.1-2.1,2.1H46.9c-1.3,0-2.2,1.2-2,2.4C45.2,477.7,46,479.4,47.3,480.6z M59.6,459.7c-1.3-1.4-3.3-2.2-6-2.2
		c-1.7,0-3.2,0.3-4.3,0.9c-1.2,0.6-2.1,1.3-2.8,2.2c-0.7,0.9-1.2,1.8-1.5,2.8c0,0,0,0,0,0c-0.4,1.3,0.6,2.6,2,2.6h12.6
		c1.4,0,2.4-1.4,1.9-2.7C61.1,461.8,60.5,460.6,59.6,459.7z"/>
	<path d="M80.1,450.4h8.2c0.6,0,1.1,0.3,1.5,0.8l5,7.5c0.7,1,2.2,1,2.9,0l4.9-7.4c0.3-0.5,0.9-0.8,1.5-0.8h7.8
		c1.4,0,2.2,1.6,1.4,2.8L102.9,468c-0.4,0.6-0.4,1.4,0,2l12.1,17.4c0.8,1.2,0,2.8-1.4,2.8h-8.2c-0.6,0-1.1-0.3-1.5-0.8l-6.3-9.6
		c-0.7-1-2.2-1-2.9,0l-6.3,9.6c-0.3,0.5-0.9,0.8-1.5,0.8h-8c-1.4,0-2.2-1.6-1.4-2.7l11.7-17.2c0.4-0.6,0.4-1.4,0-2l-10.5-15.1
		C77.9,451.9,78.7,450.4,80.1,450.4z"/>
	<path d="M140,457.5c-1.7,0-3.2,0.4-4.4,1.2c-1.2,0.8-2.1,1.8-2.9,3.1c-0.7,1.3-1.3,2.6-1.6,4.2c-0.3,1.5-0.5,3-0.5,4.5
		c0,1.4,0.2,2.9,0.5,4.4c0.3,1.5,0.8,2.8,1.5,4c0.7,1.2,1.6,2.2,2.8,3c1.2,0.8,2.6,1.2,4.3,1.2c2.6,0,4.6-0.7,6-2.2
		c1.1-1.2,1.9-2.6,2.4-4.4c0.2-0.9,1-1.5,1.9-1.5h6.6c1.2,0,2.2,1.1,1.9,2.4c-1,4.1-2.9,7.4-5.7,9.7c-3.4,2.8-7.7,4.2-13,4.2
		c-3,0-5.7-0.5-8.2-1.5c-2.5-1-4.6-2.4-6.3-4.2c-1.7-1.8-3.1-3.9-4.1-6.4c-1-2.5-1.5-5.2-1.5-8.2c0-3.1,0.4-5.9,1.3-8.6
		c0.9-2.6,2.2-4.9,4-6.9c1.7-1.9,3.9-3.4,6.4-4.5c2.5-1.1,5.4-1.6,8.6-1.6c2.4,0,4.6,0.3,6.8,0.9c2.2,0.6,4.1,1.6,5.8,2.8
		c1.7,1.3,3.1,2.8,4.2,4.7c0.7,1.3,1.3,2.8,1.6,4.4c0.2,1.2-0.7,2.3-1.9,2.3h-6.9c-0.9,0-1.6-0.6-1.9-1.4
		C146.7,459.3,144.1,457.5,140,457.5z"/>
	<path d="M165.4,441.4V438c0-1.5,1.2-2.8,2.8-2.8h5.4c1.5,0,2.8,1.2,2.8,2.8v3.4c0,1.5-1.2,2.8-2.8,2.8h-5.4
		C166.7,444.2,165.4,442.9,165.4,441.4z M176.3,453.1v34.3c0,1.5-1.2,2.8-2.8,2.8h-5.4c-1.5,0-2.8-1.2-2.8-2.8v-34.3
		c0-1.5,1.2-2.8,2.8-2.8h5.4C175.1,450.4,176.3,451.6,176.3,453.1z"/>
	<path d="M206.8,452.6v2.8c0,1.3-1,2.3-2.3,2.3H201c-1.3,0-2.3,1-2.3,2.3v17.4c0,1.8,0.3,3.1,0.9,3.7c0.6,0.6,1.8,0.9,3.7,0.9
		c0.6,0,1.2,0,1.8-0.1c0.6-0.1,1.1-0.1,1.6-0.2v6.5c0,1.2-0.9,2.2-2.1,2.3c-0.3,0-0.6,0-1,0.1c-1.1,0.1-2.2,0.1-3.3,0.1
		c-1.7,0-3.3-0.1-4.8-0.3c-1.5-0.2-2.8-0.7-4-1.3c-1.2-0.7-2.1-1.6-2.7-2.9c-0.7-1.2-1-2.9-1-4.9v-21.2c0-1.3-1-2.3-2.3-2.3h-2.1
		c-1.3,0-2.3-1-2.3-2.3v-2.8c0-1.3,1-2.3,2.3-2.3h2.1c1.3,0,2.3-1,2.3-2.3v-7.4c0-1.3,1-2.3,2.3-2.3h6.4c1.3,0,2.3,1,2.3,2.3v7.4
		c0,1.3,1,2.3,2.3,2.3h3.5C205.7,450.4,206.8,451.4,206.8,452.6z"/>
	<path d="M212.3,442v-4.6c0-1.2,1-2.2,2.2-2.2h6.5c1.2,0,2.2,1,2.2,2.2v4.6c0,1.2-1,2.2-2.2,2.2h-6.5
		C213.3,444.2,212.3,443.2,212.3,442z M223.2,452.5V488c0,1.2-1,2.2-2.2,2.2h-6.5c-1.2,0-2.2-1-2.2-2.2v-35.4c0-1.2,1-2.2,2.2-2.2
		h6.5C222.2,450.4,223.2,451.3,223.2,452.5z"/>
	<path d="M238.2,450.4c2.2,0,4,1.8,4,4v1.6h0.2c1.4-2.3,3.2-4,5.4-5c2.2-1.1,4.5-1.6,6.8-1.6c2.9,0,5.3,0.4,7.2,1.2
		c1.9,0.8,3.3,1.9,4.4,3.3c1.1,1.4,1.8,3.1,2.3,5.2c0.4,2,0.7,4.3,0.7,6.7v20.5c0,2.2-1.8,4-4,4h-3c-2.2,0-4-1.8-4-4v-18.5
		c0-3.3-0.5-5.7-1.5-7.4c-1-1.6-2.8-2.4-5.5-2.4c-3,0-5.1,0.9-6.5,2.7c-1.3,1.8-2,4.7-2,8.7v16.9c0,2.2-1.8,4-4,4h-3
		c-2.2,0-4-1.8-4-4v-31.9c0-2.2,1.8-4,4-4H238.2z"/>
	<path d="M314.9,493.1c-0.4,2.1-1.4,4-2.8,5.7c-1.4,1.8-3.5,3.3-6.2,4.5c-2.7,1.2-6.4,1.8-10.9,1.8c-1.9,0-3.9-0.2-6-0.7
		c-2-0.5-3.9-1.2-5.5-2.3c-1.7-1-3-2.3-4.1-4c-0.6-0.9-1.1-2-1.4-3.2c-0.4-1.3,0.6-2.7,2-2.7h6.9c0.9,0,1.6,0.5,1.9,1.3
		c0.6,1.4,1.4,2.3,2.6,3c1.5,0.8,3.2,1.2,5.1,1.2c3.1,0,5.3-0.9,6.7-2.8c1.4-1.8,2.1-4.2,2-7v-5.2h-0.2c-1.2,2.1-2.9,3.7-5,4.7
		c-2.2,1-4.5,1.5-6.9,1.5c-3,0-5.5-0.5-7.7-1.6c-2.2-1.1-3.9-2.5-5.3-4.3c-1.4-1.8-2.4-4-3-6.4c-0.6-2.4-1-5-1-7.7
		c0-2.6,0.4-5,1.1-7.4c0.7-2.4,1.8-4.5,3.3-6.3c1.4-1.8,3.2-3.3,5.3-4.4c2.1-1.1,4.6-1.6,7.3-1.6c2.6,0,4.9,0.5,6.9,1.5
		c2,1,3.6,2.6,5,4.9h0.2v-3.2c0-1.2,0.9-2.1,2.1-2.1h6.2c1.2,0,2.1,0.9,2.1,2.1v35.2C315.6,489.2,315.4,491.1,314.9,493.1z
		 M300,479.9c1.2-0.6,2.2-1.4,2.9-2.5c0.8-1,1.3-2.2,1.7-3.5c0.4-1.3,0.6-2.7,0.6-4.1c0-1.6-0.2-3.2-0.5-4.7
		c-0.3-1.5-0.8-2.8-1.5-3.9c-0.7-1.1-1.7-2-2.8-2.7c-1.2-0.7-2.7-1-4.5-1c-1.5,0-2.9,0.3-4,0.9c-1.1,0.6-2,1.5-2.8,2.5
		c-0.7,1.1-1.3,2.3-1.6,3.6c-0.3,1.4-0.5,2.8-0.5,4.3c0,1.4,0.1,2.9,0.4,4.3c0.3,1.4,0.8,2.7,1.5,3.8c0.7,1.1,1.6,2.1,2.7,2.8
		c1.1,0.7,2.5,1.1,4.2,1.1C297.4,480.8,298.8,480.5,300,479.9z"/>
	<path class="st1" d="M632.6,124.9c0.7,0,1.4,0.6,1.4,1.4v288.3c0,0.8-0.6,1.4-1.4,1.4H333.3c-1.3,0-1.9-1.5-1-2.4l299.3-288.3
		C631.9,125,632.2,124.9,632.6,124.9 M632.6,119.9c-1.7,0-3.2,0.6-4.4,1.8L328.9,410c-1.9,1.8-2.5,4.6-1.5,7c1,2.4,3.3,4,5.9,4
		h299.3c3.5,0,6.4-2.9,6.4-6.4V126.3C639,122.8,636.1,119.9,632.6,119.9L632.6,119.9z"/>
	<path d="M638,487.8c0-3,2.1-5.2,5-5.2s5,2.1,5,5.2c0,3-2,5.2-5,5.2C640,492.9,638,490.7,638,487.8z"/>
	<path d="M673.7,491.6c-1.5,0.7-4.4,1.2-7.6,1.2c-8.8,0-14.5-5.4-14.5-14c0-8,5.5-14.6,15.7-14.6c2.2,0,4.7,0.4,6.5,1.1l-1.3,6.3
		c-1-0.4-2.5-0.8-4.8-0.8c-4.5,0-7.4,3.2-7.3,7.7c0,5,3.4,7.7,7.5,7.7c2,0,3.6-0.3,4.9-0.8L673.7,491.6z"/>
	<path d="M703.8,478.3c0,10-7.1,14.6-14.4,14.6c-8,0-14.2-5.3-14.2-14.1s5.8-14.5,14.6-14.5C698.2,464.3,703.8,470.1,703.8,478.3z
		 M684,478.6c0,4.7,2,8.2,5.6,8.2c3.3,0,5.4-3.3,5.4-8.2c0-4.1-1.6-8.2-5.4-8.2C685.5,470.3,684,474.5,684,478.6z"/>
	<path d="M707.1,473.7c0-3.4-0.1-6.3-0.2-8.7h7.2l0.4,3.7h0.2c1.2-1.7,3.6-4.3,8.3-4.3c3.5,0,6.3,1.8,7.5,4.6h0.1
		c1-1.4,2.2-2.5,3.5-3.3c1.5-0.9,3.2-1.3,5.2-1.3c5.3,0,9.2,3.7,9.2,11.9v16.1h-8.3v-14.9c0-4-1.3-6.3-4-6.3c-2,0-3.4,1.3-3.9,3
		c-0.2,0.6-0.3,1.5-0.3,2.2v16h-8.3V477c0-3.5-1.2-5.8-3.9-5.8c-2.2,0-3.5,1.7-4,3.1c-0.3,0.7-0.3,1.5-0.3,2.1v16h-8.3V473.7z"/>
</g>
<g id="Layer_2">
</g>
</svg>
